<svg width="20" height="20" viewBox="0 0 20 20" fill="none" xmlns="http://www.w3.org/2000/svg">
<path opacity="0.4" d="M7.22532 11.6665H3.33366C2.41699 11.6665 1.66699 12.4165 1.66699 13.3332V18.3332H7.22532V11.6665Z" fill="white"/>
<path d="M11.1085 8.3335H8.88346C7.9668 8.3335 7.2168 9.0835 7.2168 10.0002V18.3335H12.7751V10.0002C12.7751 9.0835 12.0335 8.3335 11.1085 8.3335Z" fill="white"/>
<path opacity="0.4" d="M16.6671 14.1665H12.7754V18.3332H18.3337V15.8332C18.3337 14.9165 17.5837 14.1665 16.6671 14.1665Z" fill="white"/>
<path d="M12.5084 4.04174C12.7667 3.78341 12.8667 3.47508 12.7834 3.20841C12.7001 2.94174 12.4417 2.75008 12.0751 2.69175L11.2751 2.55841C11.2417 2.55008 11.1667 2.50006 11.1501 2.46673L10.7084 1.5834C10.3751 0.908398 9.61673 0.908398 9.2834 1.5834L8.84173 2.46673C8.82506 2.50006 8.75006 2.55008 8.71673 2.55841L7.91673 2.69175C7.55006 2.75008 7.30006 2.94174 7.2084 3.20841C7.12506 3.47508 7.22506 3.78341 7.4834 4.04174L8.10006 4.66674C8.12506 4.69174 8.1584 4.79174 8.15006 4.82508L7.97506 5.59173C7.84173 6.1584 8.0584 6.41673 8.20006 6.52506C8.34173 6.62506 8.65006 6.7584 9.1584 6.4584L9.9084 6.01674C9.94173 5.99174 10.0501 5.99174 10.0834 6.01674L10.8334 6.4584C11.0667 6.60007 11.2584 6.64174 11.4084 6.64174C11.5834 6.64174 11.7084 6.57506 11.7834 6.52506C11.9251 6.42506 12.1417 6.16673 12.0084 5.59173L11.8334 4.82508C11.8251 4.78341 11.8501 4.69174 11.8834 4.66674L12.5084 4.04174Z" fill="white"/>
</svg>
